<svg width="60" height="60" viewBox="0 0 60 60" fill="none" xmlns="http://www.w3.org/2000/svg">
<g filter="url(#filter0_i_248_429)">
<path d="M30 0L33.1359 0.164343L36.2374 0.655573L39.2705 1.4683L42.2021 2.59364L45 4.01924L47.6336 5.72949L50.0739 7.70566L52.2943 9.92608L54.2705 12.3664L55.9808 15L57.4064 17.7979L58.5317 20.7295L59.3444 23.7626L59.8357 26.8641L60 30L59.8357 33.1359L59.3444 36.2374L58.5317 39.2705L57.4064 42.2021L55.9808 45L54.2705 47.6336L52.2943 50.0739L50.0739 52.2943L47.6336 54.2705L45 55.9808L42.2021 57.4064L39.2705 58.5317L36.2374 59.3444L33.1359 59.8357L30 60L26.8641 59.8357L23.7626 59.3444L20.7295 58.5317L17.7979 57.4064L15 55.9808L12.3664 54.2705L9.92608 52.2943L7.70566 50.0739L5.72949 47.6336L4.01924 45L2.59364 42.2021L1.4683 39.2705L0.655573 36.2374L0.164343 33.1359L0 30L0.164343 26.8641L0.655573 23.7626L1.4683 20.7295L2.59364 17.7979L4.01924 15L5.72949 12.3664L7.70566 9.92608L9.92608 7.70566L12.3664 5.72949L15 4.01924L17.7979 2.59364L20.7295 1.4683L23.7626 0.655573L26.8641 0.164343L30 0Z" fill="#5A46FF" style="mix-blend-mode:overlay"/>
</g>
<defs>
<filter id="filter0_i_248_429" x="0" y="0" width="60" height="60.4505" filterUnits="userSpaceOnUse" color-interpolation-filters="sRGB">
<feFlood flood-opacity="0" result="BackgroundImageFix"/>
<feBlend mode="normal" in="SourceGraphic" in2="BackgroundImageFix" result="shape"/>
<feColorMatrix in="SourceAlpha" type="matrix" values="0 0 0 0 0 0 0 0 0 0 0 0 0 0 0 0 0 0 127 0" result="hardAlpha"/>
<feOffset dy="0.900926"/>
<feGaussianBlur stdDeviation="0.225231"/>
<feComposite in2="hardAlpha" operator="arithmetic" k2="-1" k3="1"/>
<feColorMatrix type="matrix" values="0 0 0 0 1 0 0 0 0 1 0 0 0 0 1 0 0 0 0.3 0"/>
<feBlend mode="overlay" in2="shape" result="effect1_innerShadow_248_429"/>
</filter>
</defs>
</svg>
