<svg width="13" height="13" viewBox="0 0 13 13" fill="none" xmlns="http://www.w3.org/2000/svg">
<path fill-rule="evenodd" clip-rule="evenodd" d="M6.70083 1.72037L4.8864 4.06986H8.51527L6.70083 1.72037ZM8.70463 6.81299C8.55156 6.78544 8.39444 6.81949 8.26311 6.90868C8.13177 6.99788 8.03535 7.136 7.99215 7.29683L7.97632 7.37474L7.65966 9.42491C7.63323 9.59685 7.66867 9.77319 7.75875 9.91786C7.84882 10.0625 7.98672 10.1646 8.14423 10.2032C8.30174 10.2418 8.46696 10.214 8.6061 10.1254C8.74523 10.0369 8.84776 9.89437 8.89272 9.72697L8.90855 9.64906L9.22521 7.59889C9.25267 7.42019 9.21327 7.23704 9.11566 7.08967C9.01804 6.94231 8.8702 6.84279 8.70463 6.81299ZM5.40951 7.29683C5.36667 7.13559 5.27037 6.99698 5.13895 6.9074C5.00752 6.81782 4.85016 6.78353 4.69682 6.81105C4.54348 6.83857 4.40488 6.92598 4.3074 7.05665C4.20993 7.18731 4.16039 7.35209 4.16822 7.51962L4.17646 7.59889L4.49311 9.64906L4.50895 9.72697C4.55179 9.88821 4.64809 10.0268 4.77951 10.1164C4.91093 10.206 5.0683 10.2403 5.22164 10.2127C5.37498 10.1852 5.51358 10.0978 5.61105 9.96715C5.70853 9.83649 5.75807 9.67171 5.75023 9.50418L5.742 9.42491L5.42535 7.37474L5.40951 7.29683Z" fill="white" fill-opacity="0.3"/>
<path opacity="0.3" fill-rule="evenodd" clip-rule="evenodd" d="M5.72819 0.845655C5.84153 0.698932 5.98211 0.579474 6.14086 0.494984C6.29962 0.410494 6.47302 0.36285 6.64989 0.355123C6.82676 0.347396 7.00316 0.379758 7.16773 0.450123C7.33229 0.520488 7.48136 0.627292 7.60532 0.763648L7.67372 0.845655L10.1639 4.06989H12.0543C12.1872 4.06958 12.3187 4.09958 12.4401 4.15791C12.5615 4.21623 12.6702 4.30158 12.7589 4.40836C12.8476 4.51513 12.9144 4.64093 12.955 4.77751C12.9955 4.91409 13.0089 5.05837 12.9942 5.2009L12.9359 5.72438L12.8726 6.23009L12.8206 6.60868L12.7605 7.0153L12.6921 7.44242L12.6148 7.88526L12.5287 8.33698C12.4831 8.56455 12.4343 8.7928 12.3817 9.019C12.2417 9.6193 12.0657 10.2092 11.8548 10.7849L11.7149 11.1539L11.5793 11.4874L11.4514 11.784L11.3919 11.9166L11.2342 12.2514C11.0315 12.6683 10.649 12.9143 10.2443 12.9499L10.143 12.954H3.25258C3.03115 12.9559 2.81339 12.8928 2.62263 12.7715C2.43187 12.6501 2.27528 12.4751 2.16962 12.2651L2.02269 11.9576L1.90869 11.7047L1.84853 11.5646L1.72187 11.2578C1.43266 10.5331 1.198 9.78438 1.02016 9.019C0.985887 8.87037 0.952953 8.72138 0.921363 8.57206L0.831433 8.12923L0.751002 7.69596L0.680072 7.27704L0.616741 6.87589L0.561643 6.49729L0.514778 6.14671L0.45778 5.67996L0.415981 5.29999L0.405215 5.19543C0.392027 5.06116 0.403737 4.92539 0.439663 4.79605C0.475589 4.6667 0.535012 4.54637 0.614469 4.44206C0.693926 4.33774 0.791829 4.25154 0.902471 4.18846C1.01311 4.12539 1.13428 4.08671 1.25892 4.07467L1.34505 4.06989H3.23801L5.72819 0.845655Z" fill="white"/>
</svg>
