<svg width="20" height="20" viewBox="0 0 20 20" fill="none" xmlns="http://www.w3.org/2000/svg">
<path opacity="0.3" d="M10 0C15.523 0 20 4.477 20 10C20 15.523 15.523 20 10 20C4.477 20 0 15.523 0 10C0 4.477 4.477 0 10 0Z" fill="black"/>
<path d="M10 5C9.75501 5.00003 9.51856 5.08997 9.33548 5.25274C9.15241 5.41552 9.03544 5.63982 9.00678 5.8831L8.99978 6.00011V9.00044H5.99911C5.74418 9.00073 5.49897 9.09833 5.31359 9.27332C5.12822 9.44831 5.01666 9.68747 5.00172 9.94194C4.98678 10.1964 5.06958 10.447 5.23321 10.6425C5.39683 10.8379 5.62894 10.9636 5.88209 10.9937L5.99911 11.0007H8.99978V14.001C9.00006 14.2559 9.09768 14.5011 9.27269 14.6864C9.44769 14.8718 9.68688 14.9833 9.94138 14.9983C10.1959 15.0132 10.4465 14.9304 10.642 14.7668C10.8375 14.6032 10.9631 14.3711 10.9932 14.118L11.0002 14.001V11.0007H14.0009C14.2558 11.0004 14.501 10.9028 14.6864 10.7278C14.8718 10.5528 14.9833 10.3136 14.9983 10.0592C15.0132 9.8047 14.9304 9.55413 14.7668 9.35865C14.6032 9.16318 14.3711 9.03755 14.1179 9.00744L14.0009 9.00044H11.0002V6.00011C11.0002 5.73486 10.8948 5.48048 10.7073 5.29293C10.5197 5.10537 10.2653 5 10 5Z" fill="white"/>
</svg>
