<svg width="20" height="20" viewBox="0 0 20 20" fill="none" xmlns="http://www.w3.org/2000/svg">
<path opacity="0.3" d="M10 0C15.523 0 20 4.477 20 10C20 15.523 15.523 20 10 20C4.477 20 0 15.523 0 10C0 4.477 4.477 0 10 0Z" fill="black"/>
<path d="M11 9C10.755 9.00003 9 9 9 9L5.99911 9.00044C5.74418 9.0007 5.49897 9.0936 5.31359 9.26013C5.12822 9.42666 5.01666 9.65427 5.00172 9.89645C4.98678 10.1386 5.06958 10.3771 5.23321 10.5631C5.39683 10.7491 5.62894 10.8687 5.88209 10.8974L5.99911 10.904H8.99978L10 10.9034H10.5L11.0002 10.904H14.0009C14.2558 10.9037 14.501 10.8109 14.6864 10.6443C14.8718 10.4778 14.9833 10.2502 14.9983 10.008C15.0132 9.76583 14.9304 9.52737 14.7668 9.34134C14.6032 9.15531 14.3711 9.03575 14.1179 9.0071L14.0009 9.00044L11 9Z" fill="white"/>
</svg>
