<svg width="36" height="36" viewBox="0 0 36 36" fill="none" xmlns="http://www.w3.org/2000/svg">
<path opacity="0.6" d="M0 18C0 8.05888 8.05888 0 18 0C27.9411 0 36 8.05888 36 18C36 27.9411 27.9411 36 18 36C8.05888 36 0 27.9411 0 18Z" fill="white" fill-opacity="0.3"/>
<path d="M11.1541 24.9996C11.0018 25.0043 10.8502 24.9699 10.7089 24.8985C10.5676 24.8271 10.4395 24.7201 10.3326 24.5843C10.224 24.4508 10.1384 24.2907 10.0812 24.1141C10.0241 23.9375 9.99655 23.7482 10.0003 23.5577C10.0003 23.1497 10.1111 22.8079 10.3326 22.5311C10.4395 22.3953 10.5676 22.2884 10.7089 22.2169C10.8502 22.1455 11.0018 22.1111 11.1541 22.1158H23.8459C24.1724 22.1158 24.447 22.2543 24.6685 22.5311C24.7769 22.6649 24.8621 22.825 24.9191 23.0016C24.976 23.1782 25.0035 23.3674 24.9997 23.5577C25.0033 23.748 24.9757 23.9372 24.9188 24.1137C24.8619 24.2902 24.7767 24.4504 24.6685 24.5843C24.5614 24.7201 24.4331 24.827 24.2916 24.8984C24.1501 24.9699 23.9984 25.0043 23.8459 24.9996H11.1541Z" fill="white"/>
<path d="M11.1541 12.6919C11.0018 12.6963 10.8504 12.6644 10.7091 12.5979C10.5678 12.5315 10.4397 12.432 10.3326 12.3057C10.224 12.1807 10.1384 12.0311 10.0813 11.866C10.0241 11.701 9.99659 11.5241 10.0003 11.3462C10.0003 10.9653 10.1111 10.645 10.3326 10.3866C10.4397 10.2603 10.5678 10.1608 10.7091 10.0944C10.8504 10.0279 11.0018 9.99596 11.1541 10.0004H23.8459C23.9983 9.99602 24.1499 10.028 24.2914 10.0944C24.4329 10.1608 24.5612 10.2603 24.6685 10.3866C24.7769 10.5118 24.8621 10.6615 24.919 10.8265C24.976 10.9915 25.0034 11.1683 24.9997 11.3462C25.0034 11.524 24.976 11.7008 24.919 11.8658C24.8621 12.0308 24.7769 12.1805 24.6685 12.3057C24.5612 12.432 24.4329 12.5315 24.2914 12.5979C24.1499 12.6643 23.9983 12.6963 23.8459 12.6919H11.1541Z" fill="white"/>
<path opacity="0.3" d="M11.2003 19.4224C11.0418 19.4291 10.8842 19.3809 10.7373 19.2809C10.5903 19.1809 10.4571 19.0312 10.3459 18.8411C10.2329 18.6541 10.1439 18.43 10.0845 18.1828C10.025 17.9355 9.99641 17.6704 10.0004 17.4038C10.0004 16.8325 10.1156 16.3521 10.3459 15.9645C10.4573 15.775 10.5905 15.6258 10.7375 15.5261C10.8844 15.4265 11.0419 15.3785 11.2003 15.3852H20.7997C20.9583 15.3786 21.1159 15.4266 21.2631 15.5262C21.4102 15.6259 21.5436 15.775 21.6553 15.9645C21.7679 16.1523 21.8566 16.3768 21.9158 16.6243C21.975 16.8718 22.0036 17.1371 21.9996 17.4038C22.0034 17.6702 21.9748 17.9351 21.9156 18.1822C21.8564 18.4293 21.7678 18.6535 21.6553 18.8411C21.5438 19.0312 21.4104 19.1808 21.2633 19.2808C21.1161 19.3808 20.9584 19.429 20.7997 19.4224H11.2003Z" fill="white"/>
</svg>
