<svg xmlns="http://www.w3.org/2000/svg" width="15" height="15" viewBox="0 0 30 30" fill="none">
    <path opacity="0.3" d="M1.92355 8.9994C1.66975 9.006 1.41733 8.95849 1.18186 8.8598C0.946381 8.76111 0.732837 8.61333 0.554383 8.42557C0.373302 8.23989 0.230737 8.0176 0.135485 7.77242C0.0402324 7.52723 -0.00568646 7.26435 0.000561913 7C0.000561913 6.43417 0.185169 5.95832 0.554383 5.57443C0.732837 5.38667 0.946381 5.23889 1.18186 5.1402C1.41733 5.04151 1.66975 4.994 1.92355 5.0006H23.0764C23.3305 4.99408 23.5832 5.04162 23.819 5.1403C24.0548 5.23897 24.2687 5.38671 24.4475 5.57443C24.6281 5.76042 24.7702 5.98281 24.8651 6.22796C24.96 6.4731 25.0057 6.73582 24.9994 7C25.0057 7.26418 24.96 7.5269 24.8651 7.77204C24.7702 8.01719 24.6281 8.23958 24.4475 8.42557C24.2687 8.61329 24.0548 8.76103 23.819 8.8597C23.5832 8.95838 23.3305 9.00592 23.0764 8.9994H1.92355Z" fill="white"/>
    <path opacity="0.3" d="M1.92356 26.9994C1.66959 27.006 1.41702 26.9583 1.18151 26.8592C0.945994 26.7602 0.732549 26.6119 0.554396 26.4236C0.373277 26.2383 0.230668 26.0164 0.135404 25.7715C0.0401394 25.5267 -0.00575107 25.2641 0.00057553 25C0.00057553 24.4342 0.185183 23.9603 0.554396 23.5764C0.732549 23.3881 0.945994 23.2398 1.18151 23.1408C1.41702 23.0417 1.66959 22.994 1.92356 23.0006H23.0764C23.6206 23.0006 24.0783 23.1925 24.4475 23.5764C24.6281 23.762 24.7702 23.984 24.8652 24.2288C24.9601 24.4737 25.0058 24.7361 24.9994 25C25.0054 25.2638 24.9596 25.5262 24.8647 25.771C24.7698 26.0157 24.6278 26.2378 24.4475 26.4236C24.2689 26.6119 24.0551 26.7601 23.8193 26.8591C23.5835 26.9582 23.3307 27.0059 23.0764 26.9994H1.92356Z" fill="white"/>
    <path d="M1.50036 17.9994C1.30226 18.006 1.10526 17.9583 0.921564 17.8592C0.737866 17.7602 0.57138 17.6119 0.432423 17.4236C0.291152 17.2383 0.179919 17.0164 0.105613 16.7715C0.0313083 16.5267 -0.00448577 16.2641 0.000448907 16C0.000448907 15.4342 0.14444 14.9583 0.432423 14.5744C0.571615 14.3867 0.738177 14.2389 0.921844 14.1402C1.10551 14.0415 1.30239 13.994 1.50036 14.0006H13.4996C13.6978 13.9941 13.8949 14.0416 14.0788 14.1403C14.2627 14.239 14.4296 14.3867 14.5691 14.5744C14.7099 14.7604 14.8207 14.9828 14.8948 15.228C14.9688 15.4731 15.0044 15.7358 14.9996 16C15.0042 16.2638 14.9685 16.5262 14.8945 16.771C14.8204 17.0158 14.7097 17.2378 14.5691 17.4236C14.4298 17.6119 14.263 17.7601 14.0791 17.8591C13.8952 17.9582 13.698 18.0059 13.4996 17.9994H1.50036Z" fill="white"/>
</svg>