<svg width="36" height="37" viewBox="0 0 36 37" fill="none" xmlns="http://www.w3.org/2000/svg">
<path opacity="0.6" d="M0 18C0 8.05888 8.05888 0 18 0C27.9411 0 36 8.05888 36 18C36 27.9411 27.9411 36 18 36C8.05888 36 0 27.9411 0 18Z" fill="white" fill-opacity="0.3"/>
<path opacity="0.3" d="M18.2903 17C21.2961 17 24.0296 17.8412 26.0405 19.0255C27.0441 19.6194 27.9022 20.3164 28.5219 21.0739C29.1315 21.8206 29.5806 22.7127 29.5806 23.6667C29.5806 24.6909 29.0651 25.4982 28.3224 26.0739C27.6199 26.6194 26.6928 26.9806 25.7081 27.2327C23.7285 27.7382 21.0866 27.9091 18.2903 27.9091C15.4941 27.9091 12.8522 27.7394 10.8726 27.2327C9.88781 26.9806 8.96075 26.6194 8.25824 26.0739C7.51434 25.497 7 24.6909 7 23.6667C7 22.7127 7.4491 21.8206 8.05878 21.0739C8.67849 20.3164 9.5353 19.6194 10.5401 19.0255C12.5511 17.8412 15.2858 17 18.2903 17Z" fill="white"/>
<path d="M18.2819 5C23.1104 5 26.1287 10.0509 23.7138 14.0909C23.1633 15.0122 22.3715 15.7773 21.418 16.3092C20.4645 16.8411 19.3829 17.1212 18.2819 17.1212C13.4534 17.1212 10.4351 12.0703 12.85 8.0303C13.4005 7.109 14.1923 6.34393 15.1458 5.81201C16.0993 5.28008 17.1809 5.00003 18.2819 5Z" fill="white"/>
</svg>
