<svg width="60" height="60" viewBox="0 0 60 60" fill="none" xmlns="http://www.w3.org/2000/svg">
<g filter="url(#filter0_i_48_21)">
<path d="M30 0L33.1359 0.164343L36.2374 0.655573L39.2705 1.4683L42.2021 2.59364L45 4.01924L47.6336 5.72949L50.0739 7.70566L52.2943 9.92608L54.2705 12.3664L55.9808 15L57.4064 17.7979L58.5317 20.7295L59.3444 23.7626L59.8357 26.8641L60 30L59.8357 33.1359L59.3444 36.2374L58.5317 39.2705L57.4064 42.2021L55.9808 45L54.2705 47.6336L52.2943 50.0739L50.0739 52.2943L47.6336 54.2705L45 55.9808L42.2021 57.4064L39.2705 58.5317L36.2374 59.3444L33.1359 59.8357L30 60L26.8641 59.8357L23.7626 59.3444L20.7295 58.5317L17.7979 57.4064L15 55.9808L12.3664 54.2705L9.92608 52.2943L7.70566 50.0739L5.72949 47.6336L4.01924 45L2.59364 42.2021L1.4683 39.2705L0.655573 36.2374L0.164343 33.1359L0 30L0.164343 26.8641L0.655573 23.7626L1.4683 20.7295L2.59364 17.7979L4.01924 15L5.72949 12.3664L7.70566 9.92608L9.92608 7.70566L12.3664 5.72949L15 4.01924L17.7979 2.59364L20.7295 1.4683L23.7626 0.655573L26.8641 0.164343L30 0Z" fill="#050144" style="mix-blend-mode:overlay"/>
</g>
<path fill-rule="evenodd" clip-rule="evenodd" d="M30.4366 20.4993L26.8554 24.7968H34.0179L30.4366 20.4993ZM34.3916 29.8143C34.0895 29.7639 33.7794 29.8262 33.5202 29.9893C33.2609 30.1524 33.0706 30.4051 32.9854 30.6993L32.9541 30.8418L32.3291 34.5918C32.2769 34.9063 32.3469 35.2288 32.5247 35.4934C32.7025 35.7581 32.9746 35.9448 33.2855 36.0153C33.5964 36.0859 33.9225 36.035 34.1971 35.8731C34.4718 35.7112 34.6741 35.4505 34.7629 35.1443L34.7941 35.0018L35.4191 31.2518C35.4733 30.9249 35.3956 30.5899 35.2029 30.3204C35.0102 30.0508 34.7184 29.8688 34.3916 29.8143ZM27.8879 30.6993C27.8033 30.4043 27.6132 30.1508 27.3538 29.987C27.0944 29.8231 26.7838 29.7604 26.4812 29.8107C26.1785 29.8611 25.905 30.0209 25.7126 30.2599C25.5202 30.4989 25.4224 30.8003 25.4379 31.1068L25.4541 31.2518L26.0791 35.0018L26.1104 35.1443C26.1949 35.4392 26.385 35.6927 26.6444 35.8566C26.9038 36.0204 27.2144 36.0832 27.517 36.0328C27.8197 35.9825 28.0933 35.8226 28.2857 35.5836C28.4781 35.3446 28.5758 35.0432 28.5604 34.7368L28.5441 34.5918L27.9191 30.8418L27.8879 30.6993Z" fill="white" fill-opacity="0.3"/>
<path opacity="0.3" fill-rule="evenodd" clip-rule="evenodd" d="M28.5166 18.8993C28.7403 18.6309 29.0178 18.4124 29.3311 18.2579C29.6445 18.1033 29.9867 18.0162 30.3358 18.002C30.6849 17.9879 31.0331 18.0471 31.3579 18.1758C31.6827 18.3045 31.9769 18.4999 32.2216 18.7493L32.3566 18.8993L37.2716 24.7968H41.0029C41.2652 24.7962 41.5247 24.8511 41.7643 24.9578C42.004 25.0645 42.2184 25.2206 42.3935 25.4159C42.5686 25.6112 42.7005 25.8413 42.7805 26.0911C42.8606 26.3409 42.8869 26.6048 42.8579 26.8655L42.7429 27.823L42.6179 28.748L42.5154 29.4405L42.3966 30.1843L42.2616 30.9655L42.1091 31.7755L41.9391 32.6018C41.8491 33.018 41.7529 33.4355 41.6491 33.8493C41.3726 34.9473 41.0252 36.0262 40.6091 37.0793L40.3329 37.7543L40.0654 38.3643L39.8129 38.9068L39.6954 39.1493L39.3841 39.7618C38.9841 40.5243 38.2291 40.9743 37.4304 41.0393L37.2304 41.0468H23.6304C23.1933 41.0503 22.7635 40.935 22.387 40.713C22.0105 40.4911 21.7014 40.1709 21.4929 39.7868L21.2029 39.2243L20.9779 38.7618L20.8591 38.5055L20.6091 37.9443C20.0383 36.6187 19.5751 35.2492 19.2241 33.8493C19.1565 33.5774 19.0915 33.3049 19.0291 33.0318L18.8516 32.2218L18.6929 31.4293L18.5529 30.663L18.4279 29.9293L18.3191 29.2368L18.2266 28.5955L18.1141 27.7418L18.0316 27.0468L18.0104 26.8555C17.9843 26.6099 18.0074 26.3616 18.0784 26.125C18.1493 25.8884 18.2666 25.6683 18.4234 25.4775C18.5802 25.2867 18.7734 25.129 18.9918 25.0137C19.2102 24.8983 19.4494 24.8275 19.6954 24.8055L19.8654 24.7968H23.6016L28.5166 18.8993Z" fill="white"/>
<defs>
<filter id="filter0_i_48_21" x="0" y="0" width="60" height="60.4505" filterUnits="userSpaceOnUse" color-interpolation-filters="sRGB">
<feFlood flood-opacity="0" result="BackgroundImageFix"/>
<feBlend mode="normal" in="SourceGraphic" in2="BackgroundImageFix" result="shape"/>
<feColorMatrix in="SourceAlpha" type="matrix" values="0 0 0 0 0 0 0 0 0 0 0 0 0 0 0 0 0 0 127 0" result="hardAlpha"/>
<feOffset dy="0.900926"/>
<feGaussianBlur stdDeviation="0.225231"/>
<feComposite in2="hardAlpha" operator="arithmetic" k2="-1" k3="1"/>
<feColorMatrix type="matrix" values="0 0 0 0 1 0 0 0 0 1 0 0 0 0 1 0 0 0 0.3 0"/>
<feBlend mode="overlay" in2="shape" result="effect1_innerShadow_48_21"/>
</filter>
</defs>
</svg>
