<svg width="41" height="40" viewBox="0 0 41 40" fill="none" xmlns="http://www.w3.org/2000/svg">
<path opacity="0.5" d="M14.7193 21.6667C15.7139 21.6667 16.6677 22.0618 17.371 22.765C18.0742 23.4683 18.4693 24.4221 18.4693 25.4167V31.25C18.4693 32.2446 18.0742 33.1984 17.371 33.9016C16.6677 34.6049 15.7139 35 14.7193 35H8.88599C7.89142 35 6.9376 34.6049 6.23434 33.9016C5.53107 33.1984 5.13599 32.2446 5.13599 31.25V25.4167C5.13599 24.4221 5.53107 23.4683 6.23434 22.765C6.9376 22.0618 7.89142 21.6667 8.88599 21.6667H14.7193ZM31.386 5C32.3805 5 33.3344 5.39509 34.0376 6.09835C34.7409 6.80161 35.136 7.75544 35.136 8.75V14.5833C35.136 15.5779 34.7409 16.5317 34.0376 17.235C33.3344 17.9382 32.3805 18.3333 31.386 18.3333H25.5527C24.5581 18.3333 23.6043 17.9382 22.901 17.235C22.1977 16.5317 21.8027 15.5779 21.8027 14.5833V8.75C21.8027 7.75544 22.1977 6.80161 22.901 6.09835C23.6043 5.39509 24.5581 5 25.5527 5H31.386Z" fill="white"/>
<path opacity="0.5" d="M14.7193 5C15.7139 5 16.6677 5.39509 17.371 6.09835C18.0742 6.80161 18.4693 7.75544 18.4693 8.75V14.5833C18.4693 15.5779 18.0742 16.5317 17.371 17.235C16.6677 17.9382 15.7139 18.3333 14.7193 18.3333H8.88599C7.89142 18.3333 6.9376 17.9382 6.23434 17.235C5.53107 16.5317 5.13599 15.5779 5.13599 14.5833V8.75C5.13599 7.75544 5.53107 6.80161 6.23434 6.09835C6.9376 5.39509 7.89142 5 8.88599 5H14.7193Z" fill="white"/>
<path opacity="0.5" d="M31.386 21.6667C32.3805 21.6667 33.3344 22.0618 34.0376 22.765C34.7409 23.4683 35.136 24.4221 35.136 25.4167V31.25C35.136 32.2446 34.7409 33.1984 34.0376 33.9017C33.3344 34.6049 32.3805 35 31.386 35H25.5527C24.5581 35 23.6043 34.6049 22.901 33.9017C22.1977 33.1984 21.8027 32.2446 21.8027 31.25V25.4167C21.8027 24.4221 22.1977 23.4683 22.901 22.765C23.6043 22.0618 24.5581 21.6667 25.5527 21.6667H31.386Z" fill="white"/>
</svg>
